{
  "accessors": [
    {
      "bufferView": 0,
      "componentType": 5125,
      "count": 9102,
      "type": "SCALAR"
    },
    {
      "bufferView": 1,
      "componentType": 5126,
      "count": 1721,
      "max": [
        1.06814622879028,
        1.26662766933441,
        2.6743950843811
      ],
      "min": [
        -1.06814622879028,
        -1.32791578769684,
        -4.199631690979
      ],
      "type": "VEC3"
    },
    {
      "bufferView": 2,
      "componentType": 5126,
      "count": 1721,
      "type": "VEC3"
    },
    {
      "bufferView": 3,
      "componentType": 5126,
      "count": 1721,
      "type": "VEC2"
    }
  ],
  "asset": {
    "generator": "Adobe Substance 3D Painter 7.4.3",
    "version": "2.0"
  },
  "bufferViews": [
    {
      "buffer": 0,
      "byteLength": 36408,
      "target": 34963
    },
    {
      "buffer": 0,
      "byteLength": 20652,
      "byteOffset": 36408,
      "target": 34962
    },
    {
      "buffer": 0,
      "byteLength": 20652,
      "byteOffset": 57060,
      "target": 34962
    },
    {
      "buffer": 0,
      "byteLength": 13768,
      "byteOffset": 77712,
      "target": 34962
    }
  ],
  "buffers": [
    {
      "byteLength": 91480,
      "uri": "Snailfish.bin"
    }
  ],
  "images": [
    {
      "uri": "lambert1_baseColor.png"
    },
    {
      "uri": "lambert1_occlusionRoughnessMetallic.png"
    },
    {
      "uri": "lambert1_normal.png"
    }
  ],
  "materials": [
    {
      "alphaMode": "OPAQUE",
      "name": "lambert1",
      "normalTexture": {
        "index": 2
      },
      "occlusionTexture": {
        "index": 1
      },
      "pbrMetallicRoughness": {
        "baseColorTexture": {
          "index": 0
        },
        "metallicRoughnessTexture": {
          "index": 1
        }
      }
    }
  ],
  "meshes": [
    {
      "name": "polySurface6",
      "primitives": [
        {
          "attributes": {
            "NORMAL": 2,
            "POSITION": 1,
            "TEXCOORD_0": 3
          },
          "indices": 0,
          "material": 0,
          "mode": 4
        }
      ]
    }
  ],
  "nodes": [
    {
      "children": [
        1,
        2,
        3,
        6,
        12,
        13
      ],
      "name": "RootNode"
    },
    {
      "name": "polySurface1"
    },
    {
      "name": "pSphere1",
      "rotation": [
        0.362043023109436,
        0.0531697534024715,
        0.25181856751442,
        0.895927011966705
      ],
      "scale": [
        0.137730732560158,
        0.11531487852335,
        0.130748927593231
      ],
      "translation": [
        -0.506576418876648,
        0.194239273667336,
        2.10581421852112
      ]
    },
    {
      "children": [
        4,
        5
      ],
      "name": "polySurface2"
    },
    {
      "name": "polySurface3"
    },
    {
      "name": "polySurface4"
    },
    {
      "children": [
        7,
        10,
        11
      ],
      "name": "polySurface3"
    },
    {
      "children": [
        8,
        9
      ],
      "name": "polySurface5"
    },
    {
      "name": "polySurface8"
    },
    {
      "name": "polySurface9"
    },
    {
      "name": "polySurface6"
    },
    {
      "name": "polySurface7"
    },
    {
      "name": "polySurface9"
    },
    {
      "children": [
        14
      ],
      "name": "polySurface6"
    },
    {
      "mesh": 0,
      "name": "polySurface6"
    }
  ],
  "samplers": [
    {
      "magFilter": 9729,
      "minFilter": 9985,
      "wrapS": 10497,
      "wrapT": 10497
    }
  ],
  "scene": 0,
  "scenes": [
    {
      "name": "Scene",
      "nodes": [
        0
      ]
    }
  ],
  "textures": [
    {
      "sampler": 0,
      "source": 0
    },
    {
      "sampler": 0,
      "source": 1
    },
    {
      "sampler": 0,
      "source": 2
    }
  ]
}